<svg width="24" height="24" viewBox="0 0 24 24" fill="none" xmlns="http://www.w3.org/2000/svg">
<g id="Icon/Engine">
<path id="Vector" d="M24 11.25V15.75C24 16.1478 23.842 16.5294 23.5607 16.8107C23.2794 17.092 22.8978 17.25 22.5 17.25H21.3103L18 20.5603C17.8612 20.7002 17.696 20.8111 17.514 20.8866C17.332 20.9621 17.1367 21.0006 16.9397 21H9.68531C9.48826 21.0006 9.29304 20.9621 9.11102 20.8866C8.92899 20.8111 8.76378 20.7002 8.625 20.5603L4.93969 16.875C4.79979 16.7362 4.68888 16.571 4.6134 16.389C4.53792 16.207 4.49937 16.0117 4.5 15.8147V13.875H2.25V16.125C2.25 16.3239 2.17098 16.5147 2.03033 16.6553C1.88968 16.796 1.69891 16.875 1.5 16.875C1.30109 16.875 1.11032 16.796 0.96967 16.6553C0.829018 16.5147 0.75 16.3239 0.75 16.125V10.125C0.75 9.92609 0.829018 9.73532 0.96967 9.59467C1.11032 9.45402 1.30109 9.375 1.5 9.375C1.69891 9.375 1.88968 9.45402 2.03033 9.59467C2.17098 9.73532 2.25 9.92609 2.25 10.125V12.375H4.5V7.5C4.5 7.10218 4.65804 6.72064 4.93934 6.43934C5.22064 6.15804 5.60218 6 6 6H11.625V3.75H9.375C9.17609 3.75 8.98532 3.67098 8.84467 3.53033C8.70402 3.38968 8.625 3.19891 8.625 3C8.625 2.80109 8.70402 2.61032 8.84467 2.46967C8.98532 2.32902 9.17609 2.25 9.375 2.25H15.375C15.5739 2.25 15.7647 2.32902 15.9053 2.46967C16.046 2.61032 16.125 2.80109 16.125 3C16.125 3.19891 16.046 3.38968 15.9053 3.53033C15.7647 3.67098 15.5739 3.75 15.375 3.75H13.125V6H16.9397C17.1367 5.99937 17.332 6.03792 17.514 6.1134C17.696 6.18888 17.8612 6.29979 18 6.43969L21.3103 9.75H22.5C22.8978 9.75 23.2794 9.90804 23.5607 10.1893C23.842 10.4706 24 10.8522 24 11.25Z" fill="#128085"/>
</g>
</svg>
