<svg width="24" height="24" viewBox="0 0 24 24" fill="none" xmlns="http://www.w3.org/2000/svg">
<g id="Icon/GasPump">
<path id="Vector" d="M22.5938 6.53063L20.7806 4.71938C20.6399 4.57864 20.449 4.49958 20.25 4.49958C20.051 4.49958 19.8601 4.57864 19.7194 4.71938C19.5786 4.86011 19.4996 5.05098 19.4996 5.25C19.4996 5.44902 19.5786 5.63989 19.7194 5.78062L21.5306 7.59375C21.6706 7.73383 21.7494 7.92356 21.75 8.12156V15.75C21.75 15.9489 21.671 16.1397 21.5303 16.2803C21.3897 16.421 21.1989 16.5 21 16.5C20.8011 16.5 20.6103 16.421 20.4697 16.2803C20.329 16.1397 20.25 15.9489 20.25 15.75V12C20.25 11.4033 20.0129 10.831 19.591 10.409C19.169 9.98705 18.5967 9.75 18 9.75H16.5V5.25C16.5 4.65326 16.2629 4.08097 15.841 3.65901C15.419 3.23705 14.8467 3 14.25 3H6.75C6.15326 3 5.58097 3.23705 5.15901 3.65901C4.73705 4.08097 4.5 4.65326 4.5 5.25V19.5H3C2.80109 19.5 2.61032 19.579 2.46967 19.7197C2.32902 19.8603 2.25 20.0511 2.25 20.25C2.25 20.4489 2.32902 20.6397 2.46967 20.7803C2.61032 20.921 2.80109 21 3 21H18C18.1989 21 18.3897 20.921 18.5303 20.7803C18.671 20.6397 18.75 20.4489 18.75 20.25C18.75 20.0511 18.671 19.8603 18.5303 19.7197C18.3897 19.579 18.1989 19.5 18 19.5H16.5V11.25H18C18.1989 11.25 18.3897 11.329 18.5303 11.4697C18.671 11.6103 18.75 11.8011 18.75 12V15.75C18.75 16.3467 18.9871 16.919 19.409 17.341C19.831 17.7629 20.4033 18 21 18C21.5967 18 22.169 17.7629 22.591 17.341C23.0129 16.919 23.25 16.3467 23.25 15.75V8.12156C23.2511 7.82618 23.1937 7.5335 23.0811 7.26043C22.9684 6.98736 22.8028 6.73931 22.5938 6.53063ZM13.5 11.25H7.5C7.30109 11.25 7.11032 11.171 6.96967 11.0303C6.82902 10.8897 6.75 10.6989 6.75 10.5C6.75 10.3011 6.82902 10.1103 6.96967 9.96967C7.11032 9.82902 7.30109 9.75 7.5 9.75H13.5C13.6989 9.75 13.8897 9.82902 14.0303 9.96967C14.171 10.1103 14.25 10.3011 14.25 10.5C14.25 10.6989 14.171 10.8897 14.0303 11.0303C13.8897 11.171 13.6989 11.25 13.5 11.25Z" fill="#C03744"/>
</g>
</svg>
