<svg width="29" height="29" viewBox="0 0 29 29" fill="none" xmlns="http://www.w3.org/2000/svg">
<g id="Icon/MapPin">
<path id="Vector" d="M14.5 1.8125C11.857 1.8155 9.32319 2.86674 7.45434 4.73559C5.58549 6.60444 4.53425 9.13829 4.53125 11.7812C4.53125 20.3113 13.5938 26.7536 13.98 27.0232C14.1324 27.13 14.314 27.1872 14.5 27.1872C14.686 27.1872 14.8676 27.13 15.02 27.0232C15.4062 26.7536 24.4688 20.3113 24.4688 11.7812C24.4658 9.13829 23.4145 6.60444 21.5457 4.73559C19.6768 2.86674 17.143 1.8155 14.5 1.8125ZM14.5 8.15625C15.217 8.15625 15.9178 8.36885 16.5139 8.76717C17.1101 9.16549 17.5747 9.73164 17.8491 10.394C18.1234 11.0564 18.1952 11.7853 18.0553 12.4885C17.9155 13.1916 17.5702 13.8375 17.0633 14.3445C16.5563 14.8515 15.9104 15.1967 15.2072 15.3366C14.504 15.4765 13.7752 15.4047 13.1128 15.1303C12.4504 14.8559 11.8842 14.3913 11.4859 13.7952C11.0876 13.1991 10.875 12.4982 10.875 11.7812C10.875 10.8198 11.2569 9.89781 11.9367 9.21799C12.6166 8.53817 13.5386 8.15625 14.5 8.15625Z" fill="#FF6156"/>
</g>
</svg>
