<svg width="16" height="16" viewBox="0 0 16 16" fill="none" xmlns="http://www.w3.org/2000/svg">
<g id="Icon/NotePencil">
<path id="Vector" d="M14.3206 3.6793L14.3206 3.67932C14.3628 3.7214 14.3962 3.77138 14.419 3.82639C14.4418 3.88139 14.4535 3.94036 14.4535 3.99991C14.4535 4.05945 14.4418 4.11842 14.419 4.17343C14.3962 4.22843 14.3628 4.27841 14.3206 4.32049L14.3206 4.32051L8.32062 10.3205C8.27851 10.3626 8.22852 10.3959 8.17352 10.4187C8.11851 10.4414 8.05956 10.4531 8.00004 10.453H8H6C5.87982 10.453 5.76457 10.4053 5.67959 10.3203C5.59461 10.2353 5.54688 10.1201 5.54688 9.9999V7.99991V7.99987C5.54683 7.94035 5.55851 7.8814 5.58125 7.82639C5.60399 7.77138 5.63735 7.72139 5.67941 7.67928L11.6794 1.6793L11.6794 1.67928C11.7215 1.63715 11.7715 1.60373 11.8265 1.58093C11.8815 1.55812 11.9405 1.54639 12 1.54639C12.0595 1.54639 12.1185 1.55812 12.1735 1.58093C12.2285 1.60373 12.2785 1.63715 12.3206 1.67928L12.3206 1.6793L14.3206 3.6793ZM7.79313 9.54678H7.81254L7.82627 9.53305L11.8263 5.53305L11.8594 5.49991L11.8263 5.46676L10.5331 4.17363L10.5 4.14049L10.4669 4.17363L6.46685 8.17363L6.45312 8.18736V8.20678V9.4999V9.54678H6.5H7.79313ZM12.4669 4.82618L12.5 4.85932L12.5331 4.82618L13.3263 4.03305L13.3594 3.99991L13.3263 3.96676L12.0331 2.67363L12 2.64049L11.9669 2.67363L11.1737 3.46676L11.1406 3.49991L11.1737 3.53305L12.4669 4.82618ZM3 2.95303H2.95312V2.9999V12.9999V13.0468H3H13H13.0469V12.9999V7.99991C13.0469 7.87973 13.0946 7.76447 13.1796 7.6795C13.2646 7.59452 13.3798 7.54678 13.5 7.54678C13.6202 7.54678 13.7354 7.59452 13.8204 7.6795C13.9054 7.76447 13.9531 7.87973 13.9531 7.99991V12.9999C13.9531 13.2527 13.8527 13.4951 13.674 13.6739C13.4952 13.8526 13.2528 13.953 13 13.953H3C2.74722 13.953 2.50478 13.8526 2.32604 13.6739C2.14729 13.4951 2.04688 13.2527 2.04688 12.9999V2.9999C2.04688 2.74712 2.14729 2.50469 2.32604 2.32594C2.50478 2.1472 2.74722 2.04678 3 2.04678H8C8.12018 2.04678 8.23543 2.09452 8.32041 2.1795C8.40539 2.26447 8.45312 2.37973 8.45312 2.4999C8.45312 2.62008 8.40539 2.73534 8.32041 2.82031C8.23543 2.90529 8.12018 2.95303 8 2.95303H3Z" fill="#FAFAFA" stroke="#FAFAFA" stroke-width="0.09375"/>
</g>
</svg>
